<mxfile host="app.diagrams.net" modified="2023-10-24T20:17:19.189Z" agent="Mozilla/5.0 (Macintosh; Intel Mac OS X 10_15_7) AppleWebKit/537.36 (KHTML, like Gecko) Chrome/118.0.0.0 Safari/537.36" etag="HYir63vQ260zcKfIdPng" version="22.0.7" type="github">
  <diagram name="Page-1" id="xWtYSua5JHVDzu-Og3l3">
    <mxGraphModel dx="2954" dy="1157" grid="1" gridSize="10" guides="1" tooltips="1" connect="1" arrows="1" fold="1" page="1" pageScale="1" pageWidth="850" pageHeight="1100" math="0" shadow="0">
      <root>
        <mxCell id="0" />
        <mxCell id="1" parent="0" />
        <mxCell id="jGDiw1tbnWFVb2rZ9ROT-2" value="Source" style="rounded=0;whiteSpace=wrap;html=1;fontSize=16;" parent="1" vertex="1">
          <mxGeometry x="180" y="120" width="120" height="60" as="geometry" />
        </mxCell>
        <mxCell id="jGDiw1tbnWFVb2rZ9ROT-4" value="Sink" style="rounded=0;whiteSpace=wrap;html=1;fontSize=16;" parent="1" vertex="1">
          <mxGeometry x="580" y="120" width="120" height="60" as="geometry" />
        </mxCell>
        <mxCell id="jGDiw1tbnWFVb2rZ9ROT-5" value="Source" style="rounded=0;whiteSpace=wrap;html=1;fontSize=16;" parent="1" vertex="1">
          <mxGeometry x="180" y="430" width="120" height="60" as="geometry" />
        </mxCell>
        <mxCell id="jGDiw1tbnWFVb2rZ9ROT-6" value="Filter" style="rounded=0;whiteSpace=wrap;html=1;fontSize=16;" parent="1" vertex="1">
          <mxGeometry x="380" y="330" width="120" height="60" as="geometry" />
        </mxCell>
        <mxCell id="jGDiw1tbnWFVb2rZ9ROT-7" value="Sink" style="rounded=0;whiteSpace=wrap;html=1;fontSize=16;" parent="1" vertex="1">
          <mxGeometry x="580" y="430" width="120" height="60" as="geometry" />
        </mxCell>
        <mxCell id="jGDiw1tbnWFVb2rZ9ROT-8" value="" style="endArrow=classic;html=1;rounded=0;exitX=1;exitY=0.5;exitDx=0;exitDy=0;entryX=0;entryY=0.5;entryDx=0;entryDy=0;fontSize=16;" parent="1" source="jGDiw1tbnWFVb2rZ9ROT-2" target="jGDiw1tbnWFVb2rZ9ROT-4" edge="1">
          <mxGeometry width="50" height="50" relative="1" as="geometry">
            <mxPoint x="420" y="180" as="sourcePoint" />
            <mxPoint x="470" y="130" as="targetPoint" />
          </mxGeometry>
        </mxCell>
        <mxCell id="jGDiw1tbnWFVb2rZ9ROT-9" value="" style="endArrow=classic;html=1;rounded=0;exitX=1;exitY=0;exitDx=0;exitDy=0;entryX=0;entryY=0.5;entryDx=0;entryDy=0;fontSize=16;" parent="1" source="jGDiw1tbnWFVb2rZ9ROT-5" target="jGDiw1tbnWFVb2rZ9ROT-6" edge="1">
          <mxGeometry width="50" height="50" relative="1" as="geometry">
            <mxPoint x="410" y="200" as="sourcePoint" />
            <mxPoint x="460" y="150" as="targetPoint" />
          </mxGeometry>
        </mxCell>
        <mxCell id="jGDiw1tbnWFVb2rZ9ROT-10" value="" style="endArrow=classic;html=1;rounded=0;entryX=0;entryY=0;entryDx=0;entryDy=0;exitX=1;exitY=0.5;exitDx=0;exitDy=0;fontSize=16;" parent="1" source="jGDiw1tbnWFVb2rZ9ROT-6" target="jGDiw1tbnWFVb2rZ9ROT-7" edge="1">
          <mxGeometry width="50" height="50" relative="1" as="geometry">
            <mxPoint x="410" y="200" as="sourcePoint" />
            <mxPoint x="460" y="150" as="targetPoint" />
          </mxGeometry>
        </mxCell>
        <mxCell id="jGDiw1tbnWFVb2rZ9ROT-11" value="A) Filtering disabled (current)" style="text;html=1;strokeColor=none;fillColor=none;align=left;verticalAlign=middle;whiteSpace=wrap;rounded=0;fontSize=16;" parent="1" vertex="1">
          <mxGeometry x="80" y="20" width="210" height="30" as="geometry" />
        </mxCell>
        <mxCell id="jGDiw1tbnWFVb2rZ9ROT-12" value="B) Filtering enabled (current)" style="text;html=1;strokeColor=none;fillColor=none;align=left;verticalAlign=middle;whiteSpace=wrap;rounded=0;fontSize=16;" parent="1" vertex="1">
          <mxGeometry x="80" y="300" width="210" height="30" as="geometry" />
        </mxCell>
        <mxCell id="NaMynCMVxRNzaTfrFiRl-1" value="Filter" style="rounded=0;whiteSpace=wrap;html=1;fontSize=16;" vertex="1" parent="1">
          <mxGeometry x="380" y="49" width="120" height="60" as="geometry" />
        </mxCell>
        <mxCell id="NaMynCMVxRNzaTfrFiRl-2" value="Source" style="rounded=0;whiteSpace=wrap;html=1;fontSize=16;" vertex="1" parent="1">
          <mxGeometry x="180" y="750" width="120" height="60" as="geometry" />
        </mxCell>
        <mxCell id="NaMynCMVxRNzaTfrFiRl-3" value="Filter" style="rounded=0;whiteSpace=wrap;html=1;fontSize=16;" vertex="1" parent="1">
          <mxGeometry x="380" y="650" width="120" height="60" as="geometry" />
        </mxCell>
        <mxCell id="NaMynCMVxRNzaTfrFiRl-4" value="Sink" style="rounded=0;whiteSpace=wrap;html=1;fontSize=16;" vertex="1" parent="1">
          <mxGeometry x="580" y="750" width="120" height="60" as="geometry" />
        </mxCell>
        <mxCell id="NaMynCMVxRNzaTfrFiRl-5" value="" style="endArrow=classic;html=1;rounded=0;exitX=1;exitY=0;exitDx=0;exitDy=0;entryX=0;entryY=0.5;entryDx=0;entryDy=0;fontSize=16;" edge="1" source="NaMynCMVxRNzaTfrFiRl-2" target="NaMynCMVxRNzaTfrFiRl-3" parent="1">
          <mxGeometry width="50" height="50" relative="1" as="geometry">
            <mxPoint x="410" y="520" as="sourcePoint" />
            <mxPoint x="460" y="470" as="targetPoint" />
          </mxGeometry>
        </mxCell>
        <mxCell id="NaMynCMVxRNzaTfrFiRl-7" value="B) Filtering enabled (proposed)" style="text;html=1;strokeColor=none;fillColor=none;align=left;verticalAlign=middle;whiteSpace=wrap;rounded=0;fontSize=16;" vertex="1" parent="1">
          <mxGeometry x="80" y="620" width="250" height="30" as="geometry" />
        </mxCell>
        <mxCell id="NaMynCMVxRNzaTfrFiRl-8" value="" style="endArrow=classic;html=1;rounded=0;exitX=1;exitY=0.5;exitDx=0;exitDy=0;entryX=0;entryY=0.5;entryDx=0;entryDy=0;fontSize=16;" edge="1" parent="1">
          <mxGeometry width="50" height="50" relative="1" as="geometry">
            <mxPoint x="300" y="779.5" as="sourcePoint" />
            <mxPoint x="580" y="779.5" as="targetPoint" />
          </mxGeometry>
        </mxCell>
      </root>
    </mxGraphModel>
  </diagram>
</mxfile>
